<mxfile host="Electron" modified="2024-09-20T15:07:00.319Z" agent="Mozilla/5.0 (Windows NT 10.0; Win64; x64) AppleWebKit/537.36 (KHTML, like Gecko) draw.io/22.0.3 Chrome/114.0.5735.289 Electron/25.8.4 Safari/537.36" etag="wHHAj0AmIPeetQCD3bV1" version="22.0.3" type="device">
  <diagram name="Page-1" id="6qWFiqdNJrCx799d8n2D">
    <mxGraphModel dx="1183" dy="785" grid="1" gridSize="10" guides="1" tooltips="1" connect="1" arrows="1" fold="1" page="1" pageScale="1" pageWidth="889" pageHeight="420" math="0" shadow="0">
      <root>
        <mxCell id="0" />
        <mxCell id="1" parent="0" />
        <mxCell id="UeA101swzo6sXOOQJebK-29" value="" style="endArrow=none;html=1;rounded=0;" edge="1" parent="1">
          <mxGeometry width="50" height="50" relative="1" as="geometry">
            <mxPoint x="701" y="391" as="sourcePoint" />
            <mxPoint x="87" y="391" as="targetPoint" />
          </mxGeometry>
        </mxCell>
        <mxCell id="UeA101swzo6sXOOQJebK-48" value="" style="endArrow=none;html=1;rounded=0;dashed=1;dashPattern=8 8;strokeColor=#666666;" edge="1" parent="1">
          <mxGeometry width="50" height="50" relative="1" as="geometry">
            <mxPoint x="700" y="296" as="sourcePoint" />
            <mxPoint x="86" y="296" as="targetPoint" />
          </mxGeometry>
        </mxCell>
        <mxCell id="UeA101swzo6sXOOQJebK-49" value="" style="endArrow=none;html=1;rounded=0;dashed=1;dashPattern=8 8;strokeColor=#666666;" edge="1" parent="1">
          <mxGeometry width="50" height="50" relative="1" as="geometry">
            <mxPoint x="701" y="202" as="sourcePoint" />
            <mxPoint x="87" y="202" as="targetPoint" />
          </mxGeometry>
        </mxCell>
        <mxCell id="UeA101swzo6sXOOQJebK-50" value="" style="endArrow=none;html=1;rounded=0;dashed=1;dashPattern=8 8;strokeColor=#666666;" edge="1" parent="1">
          <mxGeometry width="50" height="50" relative="1" as="geometry">
            <mxPoint x="701" y="106" as="sourcePoint" />
            <mxPoint x="87" y="106" as="targetPoint" />
          </mxGeometry>
        </mxCell>
        <mxCell id="UeA101swzo6sXOOQJebK-51" value="" style="endArrow=none;html=1;rounded=0;dashed=1;dashPattern=8 8;strokeColor=#666666;" edge="1" parent="1">
          <mxGeometry width="50" height="50" relative="1" as="geometry">
            <mxPoint x="702" y="13" as="sourcePoint" />
            <mxPoint x="88" y="13" as="targetPoint" />
          </mxGeometry>
        </mxCell>
        <mxCell id="UeA101swzo6sXOOQJebK-5" value="" style="endArrow=none;html=1;curved=1;strokeColor=#EA6B66;strokeWidth=2;" edge="1" parent="1">
          <mxGeometry width="50" height="50" relative="1" as="geometry">
            <mxPoint x="112" y="124" as="sourcePoint" />
            <mxPoint x="672" y="314" as="targetPoint" />
            <Array as="points">
              <mxPoint x="162" y="154" />
              <mxPoint x="207" y="160" />
              <mxPoint x="241" y="164" />
              <mxPoint x="271" y="169" />
              <mxPoint x="309" y="185" />
              <mxPoint x="323" y="189" />
              <mxPoint x="342" y="191" />
              <mxPoint x="365" y="198" />
              <mxPoint x="387" y="214" />
              <mxPoint x="405" y="231" />
              <mxPoint x="432" y="253" />
              <mxPoint x="452" y="269" />
              <mxPoint x="472" y="277" />
              <mxPoint x="481" y="277" />
              <mxPoint x="497" y="273" />
              <mxPoint x="517" y="270" />
              <mxPoint x="554" y="290" />
              <mxPoint x="569" y="299" />
              <mxPoint x="585" y="300" />
              <mxPoint x="622" y="304" />
            </Array>
          </mxGeometry>
        </mxCell>
        <mxCell id="UeA101swzo6sXOOQJebK-6" value="" style="endArrow=none;html=1;curved=1;strokeColor=#FFB570;strokeWidth=2;" edge="1" parent="1">
          <mxGeometry width="50" height="50" relative="1" as="geometry">
            <mxPoint x="112" y="267" as="sourcePoint" />
            <mxPoint x="669" y="348" as="targetPoint" />
            <Array as="points">
              <mxPoint x="203" y="239" />
              <mxPoint x="261" y="229" />
              <mxPoint x="300" y="217" />
              <mxPoint x="334" y="212" />
              <mxPoint x="360" y="214" />
              <mxPoint x="390" y="231" />
              <mxPoint x="412" y="242" />
              <mxPoint x="430" y="245" />
              <mxPoint x="454" y="245" />
              <mxPoint x="468" y="249" />
              <mxPoint x="486" y="262" />
              <mxPoint x="503" y="281" />
              <mxPoint x="516" y="290" />
              <mxPoint x="534" y="291" />
              <mxPoint x="557" y="287" />
              <mxPoint x="574" y="293" />
              <mxPoint x="597" y="315" />
              <mxPoint x="621" y="338" />
            </Array>
          </mxGeometry>
        </mxCell>
        <mxCell id="UeA101swzo6sXOOQJebK-7" value="" style="endArrow=none;html=1;curved=1;strokeColor=#A680B8;strokeWidth=2;" edge="1" parent="1">
          <mxGeometry width="50" height="50" relative="1" as="geometry">
            <mxPoint x="112" y="359" as="sourcePoint" />
            <mxPoint x="670" y="375" as="targetPoint" />
            <Array as="points">
              <mxPoint x="161" y="346" />
              <mxPoint x="262" y="357" />
              <mxPoint x="338" y="361" />
              <mxPoint x="413" y="361" />
              <mxPoint x="478" y="368" />
              <mxPoint x="517" y="368" />
              <mxPoint x="565" y="382" />
              <mxPoint x="620" y="362" />
            </Array>
          </mxGeometry>
        </mxCell>
        <mxCell id="UeA101swzo6sXOOQJebK-8" value="" style="endArrow=none;html=1;curved=1;strokeColor=#7EA6E0;strokeWidth=3;" edge="1" parent="1">
          <mxGeometry width="50" height="50" relative="1" as="geometry">
            <mxPoint x="112" y="390" as="sourcePoint" />
            <mxPoint x="671" y="93" as="targetPoint" />
            <Array as="points">
              <mxPoint x="233" y="385" />
              <mxPoint x="306" y="376" />
              <mxPoint x="366" y="355" />
              <mxPoint x="414" y="326" />
              <mxPoint x="440" y="291" />
              <mxPoint x="464" y="257" />
              <mxPoint x="497" y="244" />
              <mxPoint x="520" y="234" />
              <mxPoint x="541" y="208" />
              <mxPoint x="569" y="166" />
              <mxPoint x="622" y="141" />
            </Array>
          </mxGeometry>
        </mxCell>
        <mxCell id="UeA101swzo6sXOOQJebK-9" value="" style="endArrow=none;html=1;curved=1;strokeColor=#97D077;strokeWidth=2;" edge="1" parent="1">
          <mxGeometry width="50" height="50" relative="1" as="geometry">
            <mxPoint x="112" y="365" as="sourcePoint" />
            <mxPoint x="669" y="367" as="targetPoint" />
            <Array as="points">
              <mxPoint x="167" y="364" />
              <mxPoint x="246" y="373" />
              <mxPoint x="309" y="366" />
              <mxPoint x="364" y="370" />
              <mxPoint x="418" y="344" />
              <mxPoint x="469" y="369" />
              <mxPoint x="522" y="351" />
              <mxPoint x="572" y="377" />
              <mxPoint x="624" y="352" />
            </Array>
          </mxGeometry>
        </mxCell>
        <mxCell id="UeA101swzo6sXOOQJebK-10" value="" style="endArrow=none;html=1;curved=1;strokeColor=#999999;strokeWidth=2;" edge="1" parent="1">
          <mxGeometry width="50" height="50" relative="1" as="geometry">
            <mxPoint x="112" y="386" as="sourcePoint" />
            <mxPoint x="670" y="384" as="targetPoint" />
            <Array as="points">
              <mxPoint x="177" y="384" />
              <mxPoint x="245" y="384" />
              <mxPoint x="332" y="387" />
              <mxPoint x="388" y="388" />
              <mxPoint x="438" y="382" />
              <mxPoint x="517" y="372" />
              <mxPoint x="590" y="383" />
            </Array>
          </mxGeometry>
        </mxCell>
        <mxCell id="UeA101swzo6sXOOQJebK-11" value="" style="endArrow=none;html=1;curved=1;strokeColor=#FFD966;strokeWidth=2;" edge="1" parent="1">
          <mxGeometry width="50" height="50" relative="1" as="geometry">
            <mxPoint x="112" y="379" as="sourcePoint" />
            <mxPoint x="670" y="387" as="targetPoint" />
            <Array as="points">
              <mxPoint x="210" y="383" />
              <mxPoint x="269" y="382" />
              <mxPoint x="365" y="389" />
              <mxPoint x="416" y="372" />
              <mxPoint x="469" y="382" />
              <mxPoint x="525" y="379" />
              <mxPoint x="607" y="378" />
            </Array>
          </mxGeometry>
        </mxCell>
        <mxCell id="UeA101swzo6sXOOQJebK-12" value="" style="endArrow=none;html=1;curved=1;strokeColor=#67AB9F;strokeWidth=2;" edge="1" parent="1">
          <mxGeometry width="50" height="50" relative="1" as="geometry">
            <mxPoint x="112" y="382" as="sourcePoint" />
            <mxPoint x="670" y="381" as="targetPoint" />
            <Array as="points">
              <mxPoint x="209" y="374" />
              <mxPoint x="307" y="378" />
              <mxPoint x="360" y="384" />
              <mxPoint x="418" y="368" />
              <mxPoint x="465" y="379" />
            </Array>
          </mxGeometry>
        </mxCell>
        <mxCell id="UeA101swzo6sXOOQJebK-13" value="" style="whiteSpace=wrap;html=1;aspect=fixed;fillColor=#7EA6E0;strokeColor=#7EA6E0;" vertex="1" parent="1">
          <mxGeometry x="721" y="84" width="10" height="10" as="geometry" />
        </mxCell>
        <mxCell id="UeA101swzo6sXOOQJebK-14" value="Unicode (UTF-8...)" style="text;strokeColor=none;align=left;fillColor=none;html=1;verticalAlign=middle;whiteSpace=wrap;rounded=0;" vertex="1" parent="1">
          <mxGeometry x="736" y="74" width="120" height="30" as="geometry" />
        </mxCell>
        <mxCell id="UeA101swzo6sXOOQJebK-15" value="" style="whiteSpace=wrap;html=1;aspect=fixed;fillColor=#EA6B66;strokeColor=#EA6B66;" vertex="1" parent="1">
          <mxGeometry x="721" y="104" width="10" height="10" as="geometry" />
        </mxCell>
        <mxCell id="UeA101swzo6sXOOQJebK-16" value="ASCII" style="text;strokeColor=none;align=left;fillColor=none;html=1;verticalAlign=middle;whiteSpace=wrap;rounded=0;" vertex="1" parent="1">
          <mxGeometry x="736" y="94" width="120" height="30" as="geometry" />
        </mxCell>
        <mxCell id="UeA101swzo6sXOOQJebK-17" value="" style="whiteSpace=wrap;html=1;aspect=fixed;fillColor=#FFB570;strokeColor=#FFB570;" vertex="1" parent="1">
          <mxGeometry x="721" y="124" width="10" height="10" as="geometry" />
        </mxCell>
        <mxCell id="UeA101swzo6sXOOQJebK-18" value="Latin (1252)" style="text;strokeColor=none;align=left;fillColor=none;html=1;verticalAlign=middle;whiteSpace=wrap;rounded=0;" vertex="1" parent="1">
          <mxGeometry x="736" y="114" width="120" height="30" as="geometry" />
        </mxCell>
        <mxCell id="UeA101swzo6sXOOQJebK-19" value="" style="whiteSpace=wrap;html=1;aspect=fixed;fillColor=#97D077;strokeColor=#97D077;" vertex="1" parent="1">
          <mxGeometry x="721" y="144" width="10" height="10" as="geometry" />
        </mxCell>
        <mxCell id="UeA101swzo6sXOOQJebK-20" value="Chinois (GB2312...)" style="text;strokeColor=none;align=left;fillColor=none;html=1;verticalAlign=middle;whiteSpace=wrap;rounded=0;" vertex="1" parent="1">
          <mxGeometry x="736" y="134" width="120" height="30" as="geometry" />
        </mxCell>
        <mxCell id="UeA101swzo6sXOOQJebK-21" value="" style="whiteSpace=wrap;html=1;aspect=fixed;fillColor=#A680B8;strokeColor=#A680B8;" vertex="1" parent="1">
          <mxGeometry x="721" y="164" width="10" height="10" as="geometry" />
        </mxCell>
        <mxCell id="UeA101swzo6sXOOQJebK-22" value="Japonais (SJIS...)" style="text;strokeColor=none;align=left;fillColor=none;html=1;verticalAlign=middle;whiteSpace=wrap;rounded=0;" vertex="1" parent="1">
          <mxGeometry x="736" y="154" width="120" height="30" as="geometry" />
        </mxCell>
        <mxCell id="UeA101swzo6sXOOQJebK-23" value="" style="whiteSpace=wrap;html=1;aspect=fixed;fillColor=#67AB9F;strokeColor=#67AB9F;" vertex="1" parent="1">
          <mxGeometry x="721" y="184" width="10" height="10" as="geometry" />
        </mxCell>
        <mxCell id="UeA101swzo6sXOOQJebK-24" value="Cyrillic (1251...)" style="text;strokeColor=none;align=left;fillColor=none;html=1;verticalAlign=middle;whiteSpace=wrap;rounded=0;" vertex="1" parent="1">
          <mxGeometry x="736" y="174" width="120" height="30" as="geometry" />
        </mxCell>
        <mxCell id="UeA101swzo6sXOOQJebK-25" value="" style="whiteSpace=wrap;html=1;aspect=fixed;fillColor=#FFD966;strokeColor=#FFD966;" vertex="1" parent="1">
          <mxGeometry x="721" y="204" width="10" height="10" as="geometry" />
        </mxCell>
        <mxCell id="UeA101swzo6sXOOQJebK-26" value="Coréen (EUC-KR...)" style="text;strokeColor=none;align=left;fillColor=none;html=1;verticalAlign=middle;whiteSpace=wrap;rounded=0;" vertex="1" parent="1">
          <mxGeometry x="736" y="194" width="120" height="30" as="geometry" />
        </mxCell>
        <mxCell id="UeA101swzo6sXOOQJebK-27" value="" style="whiteSpace=wrap;html=1;aspect=fixed;fillColor=#999999;strokeColor=#999999;" vertex="1" parent="1">
          <mxGeometry x="721" y="224" width="10" height="10" as="geometry" />
        </mxCell>
        <mxCell id="UeA101swzo6sXOOQJebK-28" value="Autre" style="text;strokeColor=none;align=left;fillColor=none;html=1;verticalAlign=middle;whiteSpace=wrap;rounded=0;" vertex="1" parent="1">
          <mxGeometry x="736" y="214" width="120" height="30" as="geometry" />
        </mxCell>
        <mxCell id="UeA101swzo6sXOOQJebK-30" value="2001" style="text;strokeColor=none;align=center;fillColor=none;html=1;verticalAlign=middle;whiteSpace=wrap;rounded=0;" vertex="1" parent="1">
          <mxGeometry x="91" y="399" width="40" height="20" as="geometry" />
        </mxCell>
        <mxCell id="UeA101swzo6sXOOQJebK-31" value="2002" style="text;strokeColor=none;align=center;fillColor=none;html=1;verticalAlign=middle;whiteSpace=wrap;rounded=0;" vertex="1" parent="1">
          <mxGeometry x="141" y="399" width="40" height="20" as="geometry" />
        </mxCell>
        <mxCell id="UeA101swzo6sXOOQJebK-32" value="2003" style="text;strokeColor=none;align=center;fillColor=none;html=1;verticalAlign=middle;whiteSpace=wrap;rounded=0;" vertex="1" parent="1">
          <mxGeometry x="191" y="399" width="40" height="20" as="geometry" />
        </mxCell>
        <mxCell id="UeA101swzo6sXOOQJebK-33" value="2004" style="text;strokeColor=none;align=center;fillColor=none;html=1;verticalAlign=middle;whiteSpace=wrap;rounded=0;" vertex="1" parent="1">
          <mxGeometry x="244" y="399" width="40" height="20" as="geometry" />
        </mxCell>
        <mxCell id="UeA101swzo6sXOOQJebK-34" value="2005" style="text;strokeColor=none;align=center;fillColor=none;html=1;verticalAlign=middle;whiteSpace=wrap;rounded=0;" vertex="1" parent="1">
          <mxGeometry x="296" y="399" width="40" height="20" as="geometry" />
        </mxCell>
        <mxCell id="UeA101swzo6sXOOQJebK-35" value="2006" style="text;strokeColor=none;align=center;fillColor=none;html=1;verticalAlign=middle;whiteSpace=wrap;rounded=0;" vertex="1" parent="1">
          <mxGeometry x="347" y="399" width="40" height="20" as="geometry" />
        </mxCell>
        <mxCell id="UeA101swzo6sXOOQJebK-36" value="2007" style="text;strokeColor=none;align=center;fillColor=none;html=1;verticalAlign=middle;whiteSpace=wrap;rounded=0;" vertex="1" parent="1">
          <mxGeometry x="398" y="399" width="40" height="20" as="geometry" />
        </mxCell>
        <mxCell id="UeA101swzo6sXOOQJebK-37" value="2008" style="text;strokeColor=none;align=center;fillColor=none;html=1;verticalAlign=middle;whiteSpace=wrap;rounded=0;" vertex="1" parent="1">
          <mxGeometry x="446" y="399" width="40" height="20" as="geometry" />
        </mxCell>
        <mxCell id="UeA101swzo6sXOOQJebK-38" value="2009" style="text;strokeColor=none;align=center;fillColor=none;html=1;verticalAlign=middle;whiteSpace=wrap;rounded=0;" vertex="1" parent="1">
          <mxGeometry x="499" y="399" width="40" height="20" as="geometry" />
        </mxCell>
        <mxCell id="UeA101swzo6sXOOQJebK-39" value="2010" style="text;strokeColor=none;align=center;fillColor=none;html=1;verticalAlign=middle;whiteSpace=wrap;rounded=0;" vertex="1" parent="1">
          <mxGeometry x="551" y="399" width="40" height="20" as="geometry" />
        </mxCell>
        <mxCell id="UeA101swzo6sXOOQJebK-40" value="2011" style="text;strokeColor=none;align=center;fillColor=none;html=1;verticalAlign=middle;whiteSpace=wrap;rounded=0;" vertex="1" parent="1">
          <mxGeometry x="601" y="399" width="40" height="20" as="geometry" />
        </mxCell>
        <mxCell id="UeA101swzo6sXOOQJebK-41" value="2012" style="text;strokeColor=none;align=center;fillColor=none;html=1;verticalAlign=middle;whiteSpace=wrap;rounded=0;" vertex="1" parent="1">
          <mxGeometry x="651" y="399" width="40" height="20" as="geometry" />
        </mxCell>
        <mxCell id="UeA101swzo6sXOOQJebK-42" value="0%" style="text;strokeColor=none;align=right;fillColor=none;html=1;verticalAlign=middle;whiteSpace=wrap;rounded=0;" vertex="1" parent="1">
          <mxGeometry x="39" y="384" width="40" height="20" as="geometry" />
        </mxCell>
        <mxCell id="UeA101swzo6sXOOQJebK-43" value="20%" style="text;strokeColor=none;align=right;fillColor=none;html=1;verticalAlign=middle;whiteSpace=wrap;rounded=0;" vertex="1" parent="1">
          <mxGeometry x="39" y="288" width="40" height="20" as="geometry" />
        </mxCell>
        <mxCell id="UeA101swzo6sXOOQJebK-44" value="40%" style="text;strokeColor=none;align=right;fillColor=none;html=1;verticalAlign=middle;whiteSpace=wrap;rounded=0;" vertex="1" parent="1">
          <mxGeometry x="39" y="194" width="40" height="20" as="geometry" />
        </mxCell>
        <mxCell id="UeA101swzo6sXOOQJebK-45" value="60%" style="text;strokeColor=none;align=right;fillColor=none;html=1;verticalAlign=middle;whiteSpace=wrap;rounded=0;" vertex="1" parent="1">
          <mxGeometry x="39" y="97" width="40" height="20" as="geometry" />
        </mxCell>
        <mxCell id="UeA101swzo6sXOOQJebK-46" value="80%" style="text;strokeColor=none;align=right;fillColor=none;html=1;verticalAlign=middle;whiteSpace=wrap;rounded=0;" vertex="1" parent="1">
          <mxGeometry x="39" y="4" width="40" height="20" as="geometry" />
        </mxCell>
        <mxCell id="UeA101swzo6sXOOQJebK-52" value="" style="endArrow=none;html=1;rounded=0;" edge="1" parent="1">
          <mxGeometry width="50" height="50" relative="1" as="geometry">
            <mxPoint x="112" y="397" as="sourcePoint" />
            <mxPoint x="112" y="14" as="targetPoint" />
          </mxGeometry>
        </mxCell>
        <mxCell id="UeA101swzo6sXOOQJebK-53" value="" style="endArrow=none;html=1;rounded=0;" edge="1" parent="1">
          <mxGeometry width="50" height="50" relative="1" as="geometry">
            <mxPoint x="160.89" y="396.5" as="sourcePoint" />
            <mxPoint x="160.89" y="391.5" as="targetPoint" />
          </mxGeometry>
        </mxCell>
        <mxCell id="UeA101swzo6sXOOQJebK-54" value="" style="endArrow=none;html=1;rounded=0;" edge="1" parent="1">
          <mxGeometry width="50" height="50" relative="1" as="geometry">
            <mxPoint x="212" y="396.5" as="sourcePoint" />
            <mxPoint x="212" y="391.5" as="targetPoint" />
          </mxGeometry>
        </mxCell>
        <mxCell id="UeA101swzo6sXOOQJebK-55" value="" style="endArrow=none;html=1;rounded=0;editable=0;" edge="1" parent="1">
          <mxGeometry width="50" height="50" relative="1" as="geometry">
            <mxPoint x="263.97" y="396.5" as="sourcePoint" />
            <mxPoint x="263.97" y="391.5" as="targetPoint" />
          </mxGeometry>
        </mxCell>
        <mxCell id="UeA101swzo6sXOOQJebK-56" value="" style="endArrow=none;html=1;rounded=0;editable=0;" edge="1" parent="1">
          <mxGeometry width="50" height="50" relative="1" as="geometry">
            <mxPoint x="315.97" y="396.5" as="sourcePoint" />
            <mxPoint x="315.97" y="391.5" as="targetPoint" />
          </mxGeometry>
        </mxCell>
        <mxCell id="UeA101swzo6sXOOQJebK-57" value="" style="endArrow=none;html=1;rounded=0;editable=0;" edge="1" parent="1">
          <mxGeometry width="50" height="50" relative="1" as="geometry">
            <mxPoint x="366.97" y="396.5" as="sourcePoint" />
            <mxPoint x="366.97" y="391.5" as="targetPoint" />
          </mxGeometry>
        </mxCell>
        <mxCell id="UeA101swzo6sXOOQJebK-58" value="" style="endArrow=none;html=1;rounded=0;editable=0;" edge="1" parent="1">
          <mxGeometry width="50" height="50" relative="1" as="geometry">
            <mxPoint x="417.97" y="396.5" as="sourcePoint" />
            <mxPoint x="417.97" y="391.5" as="targetPoint" />
          </mxGeometry>
        </mxCell>
        <mxCell id="UeA101swzo6sXOOQJebK-59" value="" style="endArrow=none;html=1;rounded=0;editable=0;" edge="1" parent="1">
          <mxGeometry width="50" height="50" relative="1" as="geometry">
            <mxPoint x="465.97" y="396.5" as="sourcePoint" />
            <mxPoint x="465.97" y="391.5" as="targetPoint" />
          </mxGeometry>
        </mxCell>
        <mxCell id="UeA101swzo6sXOOQJebK-60" value="" style="endArrow=none;html=1;rounded=0;editable=0;" edge="1" parent="1">
          <mxGeometry width="50" height="50" relative="1" as="geometry">
            <mxPoint x="518.97" y="396.5" as="sourcePoint" />
            <mxPoint x="518.97" y="391.5" as="targetPoint" />
          </mxGeometry>
        </mxCell>
        <mxCell id="UeA101swzo6sXOOQJebK-61" value="" style="endArrow=none;html=1;rounded=0;editable=0;" edge="1" parent="1">
          <mxGeometry width="50" height="50" relative="1" as="geometry">
            <mxPoint x="570.97" y="396.5" as="sourcePoint" />
            <mxPoint x="570.97" y="391.5" as="targetPoint" />
          </mxGeometry>
        </mxCell>
        <mxCell id="UeA101swzo6sXOOQJebK-62" value="" style="endArrow=none;html=1;rounded=0;editable=0;" edge="1" parent="1">
          <mxGeometry width="50" height="50" relative="1" as="geometry">
            <mxPoint x="621" y="396.5" as="sourcePoint" />
            <mxPoint x="621" y="391.5" as="targetPoint" />
          </mxGeometry>
        </mxCell>
        <mxCell id="UeA101swzo6sXOOQJebK-64" value="" style="endArrow=none;html=1;curved=1;strokeColor=#7EA6E0;dashed=1;dashPattern=8 8;strokeWidth=3;" edge="1" parent="1">
          <mxGeometry width="50" height="50" relative="1" as="geometry">
            <mxPoint x="831" y="14" as="sourcePoint" />
            <mxPoint x="671" y="94" as="targetPoint" />
            <Array as="points">
              <mxPoint x="771" y="24" />
              <mxPoint x="711" y="54" />
            </Array>
          </mxGeometry>
        </mxCell>
        <mxCell id="UeA101swzo6sXOOQJebK-66" value="" style="endArrow=none;html=1;rounded=0;editable=0;" edge="1" parent="1">
          <mxGeometry width="50" height="50" relative="1" as="geometry">
            <mxPoint x="670.92" y="396.5" as="sourcePoint" />
            <mxPoint x="670.92" y="391.5" as="targetPoint" />
          </mxGeometry>
        </mxCell>
      </root>
    </mxGraphModel>
  </diagram>
</mxfile>
